<svg xmlns="http://www.w3.org/2000/svg" viewBox="0 0 512 512" width="512" height="512">
  <rect x="0" y="0" width="512" height="512" rx="96" fill="#141414"/>
  
  <!-- Magnifying glass handle -->
  <line x1="340" y1="340" x2="420" y2="420" stroke="#f59e0b" stroke-width="32" stroke-linecap="round"/>
  <line x1="340" y1="340" x2="420" y2="420" stroke="#141414" stroke-width="14" stroke-linecap="round"/>
  
  <!-- Lens circle (outer) -->
  <circle cx="230" cy="230" r="138" fill="none" stroke="#f59e0b" stroke-width="28"/>
  
  <!-- Film strip inside the lens - horizontal strip with perforations -->
  <rect x="105" y="195" width="250" height="70" rx="4" fill="#f59e0b" opacity="0.3"/>
  
  <!-- Perforations top row -->
  <rect x="115" y="200" width="12" height="9" rx="2" fill="#f59e0b" opacity="0.7"/>
  <rect x="140" y="200" width="12" height="9" rx="2" fill="#f59e0b" opacity="0.7"/>
  <rect x="165" y="200" width="12" height="9" rx="2" fill="#f59e0b" opacity="0.7"/>
  <rect x="190" y="200" width="12" height="9" rx="2" fill="#f59e0b" opacity="0.7"/>
  <rect x="215" y="200" width="12" height="9" rx="2" fill="#f59e0b" opacity="0.7"/>
  <rect x="240" y="200" width="12" height="9" rx="2" fill="#f59e0b" opacity="0.7"/>
  <rect x="265" y="200" width="12" height="9" rx="2" fill="#f59e0b" opacity="0.7"/>
  <rect x="290" y="200" width="12" height="9" rx="2" fill="#f59e0b" opacity="0.7"/>
  <rect x="315" y="200" width="12" height="9" rx="2" fill="#f59e0b" opacity="0.7"/>
  <rect x="340" y="200" width="12" height="9" rx="2" fill="#f59e0b" opacity="0.7"/>
  
  <!-- Perforations bottom row -->
  <rect x="115" y="251" width="12" height="9" rx="2" fill="#f59e0b" opacity="0.7"/>
  <rect x="140" y="251" width="12" height="9" rx="2" fill="#f59e0b" opacity="0.7"/>
  <rect x="165" y="251" width="12" height="9" rx="2" fill="#f59e0b" opacity="0.7"/>
  <rect x="190" y="251" width="12" height="9" rx="2" fill="#f59e0b" opacity="0.7"/>
  <rect x="215" y="251" width="12" height="9" rx="2" fill="#f59e0b" opacity="0.7"/>
  <rect x="240" y="251" width="12" height="9" rx="2" fill="#f59e0b" opacity="0.7"/>
  <rect x="265" y="251" width="12" height="9" rx="2" fill="#f59e0b" opacity="0.7"/>
  <rect x="290" y="251" width="12" height="9" rx="2" fill="#f59e0b" opacity="0.7"/>
  <rect x="315" y="251" width="12" height="9" rx="2" fill="#f59e0b" opacity="0.7"/>
  <rect x="340" y="251" width="12" height="9" rx="2" fill="#f59e0b" opacity="0.7"/>
  
  <!-- Film frames inside strip -->
  <rect x="118" y="213" width="30" height="34" rx="2" fill="#f59e0b" opacity="0.5"/>
  <rect x="156" y="213" width="30" height="34" rx="2" fill="#f59e0b" opacity="0.5"/>
  <rect x="194" y="213" width="30" height="34" rx="2" fill="#f59e0b" opacity="0.9"/>
  <rect x="232" y="213" width="30" height="34" rx="2" fill="#f59e0b" opacity="0.5"/>
  <rect x="270" y="213" width="30" height="34" rx="2" fill="#f59e0b" opacity="0.5"/>
  <rect x="308" y="213" width="30" height="34" rx="2" fill="#f59e0b" opacity="0.5"/>
  
  <!-- Highlight on the center frame (the "selected" one) -->
  <rect x="194" y="213" width="30" height="34" rx="2" fill="none" stroke="#f59e0b" stroke-width="3"/>
</svg>